PathFileType  4	(X/Y/Z) C:\Users\antoi\Documents\MyRepositories\mobilecap\ResultsAnalysis
DataRate	CameraRate	NumFrames	NumMarkers	Units	OrigDataRate	OrigDataStartFrame	OrigNumFrames
100.0	100.0	7	51	mm	100.0	54	142
Frame#	Time	r_knee			r_shank_antsup			r_ankle			r_calc			r_5meta			r_toe			L_knee			L_shank_antsup			L_ankle			L_calc			L_5meta			L_toe			r_sh2			r_sh3			r_sh4			L_sh2			L_sh3			r_thigh1			r_thigh2			r_thigh3			r_thigh4			r_thigh5			L_thigh1			L_thigh2			L_thigh3			L_thigh4			r.ASIS			r.PSIS			L.ASIS			L.PSIS			C7			R_Shoulder			L_Shoulder			R_Sternum			L_Sternum			R_humerus			R_elbow_med			R_elbow_lat			R_forearm			R_wrist_radius			R_wrist_ulna			L_humerus			L_elbow_med			L_elbow_lat			L_forearm			L_wrist_radius			L_wrist_ulna			R_HJC			L_HJC			R_HJC_reg			L_HJC_reg			
		X1	Y1	Z1	X2	Y2	Z2	X3	Y3	Z3	X4	Y4	Z4	X5	Y5	Z5	X6	Y6	Z6	X7	Y7	Z7	X8	Y8	Z8	X9	Y9	Z9	X10	Y10	Z10	X11	Y11	Z11	X12	Y12	Z12	X13	Y13	Z13	X14	Y14	Z14	X15	Y15	Z15	X16	Y16	Z16	X17	Y17	Z17	X18	Y18	Z18	X19	Y19	Z19	X20	Y20	Z20	X21	Y21	Z21	X22	Y22	Z22	X23	Y23	Z23	X24	Y24	Z24	X25	Y25	Z25	X26	Y26	Z26	X27	Y27	Z27	X28	Y28	Z28	X29	Y29	Z29	X30	Y30	Z30	X31	Y31	Z31	X32	Y32	Z32	X33	Y33	Z33	X34	Y34	Z34	X35	Y35	Z35	X36	Y36	Z36	X37	Y37	Z37	X38	Y38	Z38	X39	Y39	Z39	X40	Y40	Z40	X41	Y41	Z41	X42	Y42	Z42	X43	Y43	Z43	X44	Y44	Z44	X45	Y45	Z45	X46	Y46	Z46	X47	Y47	Z47	X48	Y48	Z48	X49	Y49	Z49	X50	Y50	Z50	X51	Y51	Z51	

54	0.53000000	382.36173	493.92081	-64.02450	398.68335	415.60654	-82.68644	233.83209	112.41750	-95.90941	159.03265	86.61565	-130.90957	327.51182	43.94538	-62.11040	378.78816	65.15427	-119.14798	651.16231	505.04682	-362.58972	719.05429	438.04066	-371.20135	786.01729	125.17254	-372.99491	739.97666	59.68653	-329.39151	912.65966	107.67811	-402.65800	936.85050	151.83039	-349.22455	344.75971	313.40097	-61.81510	328.06385	448.85985	-50.46592	278.81618	347.44659	-52.20740	631.99965	415.02374	-376.57680	676.60697	300.78187	-391.66580	526.78499	786.71280	-30.26480	496.11602	678.91426	-42.29045	436.36485	670.15587	-15.50533	418.12542	812.63784	-6.18079	387.10579	699.66730	-25.83192	570.95309	758.57720	-400.77121	632.51697	636.45757	-381.51133	474.34262	714.51248	-355.43802	539.47670	589.07962	-350.45029	569.15270	961.47034	-71.50747	379.95163	999.43318	-157.21563	578.08465	942.55434	-322.66540	374.15081	995.41120	-257.54130	385.58489	1412.69477	-240.88865	515.94783	1391.09857	-81.59682	430.93689	1351.85990	-424.55706	525.63615	1373.26630	-239.68487	522.48788	1368.57168	-280.76002	568.32081	1272.56172	-16.22616	559.82359	1047.65753	-14.03799	600.89326	1079.85832	37.29956	722.24938	1023.34581	-13.74136	823.74284	945.08509	-59.93343	817.59518	924.21359	-31.74034	428.88481	1233.42939	-477.79656	376.17059	1006.57598	-407.71594	386.28073	1024.51442	-483.80768	448.81445	926.46144	-494.09697	476.08124	772.70020	-509.77455	446.85097	770.41846	-526.37028	491.21407	881.82203	-93.77365	496.07825	870.79186	-299.88182	503.02849	884.26085	-99.59111	493.43714	877.60793	-265.52404	
55	0.54000000	390.26265	493.09848	-64.04962	405.58725	414.25241	-82.72875	235.19795	113.99314	-95.63310	160.23866	89.32878	-130.57615	327.28765	43.54778	-61.87770	379.47055	64.78084	-118.93718	662.84536	503.61357	-363.61467	730.68514	436.58943	-372.35977	799.07449	124.06464	-375.05729	753.64754	57.95687	-331.63226	926.22874	107.64006	-404.38018	949.75042	152.07179	-350.86989	349.86763	313.01398	-61.71825	335.66503	448.74756	-50.50365	284.60956	348.27710	-52.08691	643.75488	413.22103	-378.12104	688.89140	299.30661	-393.52028	536.86325	784.78141	-29.79361	505.49214	677.21685	-41.85203	445.42710	669.02828	-15.45837	428.24030	811.62889	-6.62198	396.43685	698.83265	-26.37102	583.94311	757.64139	-401.20132	644.77680	635.11312	-381.97310	486.77215	713.78180	-356.87387	550.97498	588.08976	-351.71929	580.56926	959.78552	-70.81598	392.05446	997.50186	-158.44601	591.15796	940.74064	-322.30100	386.80549	993.65743	-258.77899	397.25111	1410.96119	-244.10696	528.39252	1390.96897	-85.14997	442.20225	1348.64519	-427.33622	537.42754	1371.57525	-243.03373	534.32571	1366.14396	-283.97472	581.56164	1273.19718	-18.96320	573.45310	1048.29690	-14.42783	614.88753	1081.10910	36.28706	736.06003	1024.72378	-15.36772	837.34205	946.63940	-62.04161	831.57839	925.83729	-33.77934	439.91455	1229.91405	-479.73790	387.69334	1003.44190	-408.04783	397.26951	1021.02846	-484.35416	459.20479	922.73914	-494.86097	485.55332	768.93973	-510.31609	455.93778	766.65951	-526.39290	502.72246	880.07580	-93.96764	509.17101	868.96017	-300.03029	514.84805	882.10430	-99.43709	506.15389	875.73546	-265.69465	
56	0.55000000	398.79398	492.14425	-64.22427	413.05110	412.74126	-82.89529	236.74748	115.74812	-95.34025	161.62570	92.39356	-130.20189	327.13327	43.21036	-61.65659	380.22883	64.34365	-118.73903	675.48795	502.58020	-364.51764	742.25254	434.73115	-373.45479	808.83586	122.01882	-376.63716	763.37866	56.19706	-333.22621	936.12708	105.33244	-405.85377	959.57804	149.88292	-352.40294	355.46589	312.57450	-61.71811	343.92147	448.54091	-50.64552	290.91115	349.13631	-52.01849	655.18281	411.91358	-379.24451	699.62191	297.88733	-394.83330	547.25977	782.83698	-29.56339	515.29479	675.48031	-41.59863	454.94873	667.80798	-15.59333	438.65066	810.49569	-7.24874	406.20471	697.85621	-27.03180	597.68608	757.19708	-401.55253	658.04566	634.40301	-382.38335	499.93776	713.11272	-358.72022	563.57988	587.42015	-353.22577	592.16935	958.05112	-70.14923	404.32823	995.56830	-159.70286	604.27031	939.14614	-322.04761	399.53856	992.03198	-260.02722	409.00686	1409.30217	-247.58198	540.81495	1390.98355	-88.88002	453.64719	1345.43262	-430.30272	549.20891	1369.86856	-246.54533	546.25848	1363.77971	-287.38586	594.56735	1273.93385	-21.75489	586.83127	1049.08867	-14.95304	628.55236	1082.49019	35.22142	749.53943	1026.05249	-16.87466	850.52783	947.95852	-63.88184	845.13780	927.27967	-35.53268	451.23302	1226.38803	-481.85811	399.55645	1000.32505	-408.51107	408.61580	1017.51714	-485.03797	470.03604	919.02627	-495.67334	495.46431	765.13069	-510.73929	465.62099	762.90096	-526.43009	514.39708	878.29396	-94.31039	522.36528	867.30658	-300.33077	526.88855	879.86734	-99.35459	518.93708	873.99836	-265.97579	
57	0.56000000	408.01661	491.06650	-64.56985	421.12653	411.08597	-83.19360	238.54433	117.74463	-95.03408	163.21719	95.87923	-129.80676	327.18063	43.04601	-61.47496	381.09914	63.83547	-118.55344	688.79175	501.82490	-365.31662	753.67277	432.52229	-374.44778	815.91207	119.21545	-377.71418	769.83422	54.62322	-334.18748	942.95605	101.15518	-407.07285	966.92674	145.61297	-353.77679	361.59179	312.11036	-61.82407	352.87428	448.24809	-50.90925	297.75328	350.04833	-52.02518	666.25039	410.97537	-379.90173	709.00042	296.48387	-395.55400	558.04973	780.89801	-29.60712	525.57787	673.72989	-41.57587	465.00116	666.49093	-15.93635	449.42821	809.23816	-8.04461	416.48136	696.73712	-27.81528	611.95835	757.12976	-401.88197	672.05264	634.18068	-382.78896	513.66880	712.51936	-360.80227	577.06918	587.01894	-354.84529	604.02558	956.26918	-69.60926	416.78527	993.67526	-160.93251	617.44893	937.84040	-321.96008	412.37153	990.56855	-261.23905	420.86484	1407.74636	-251.29615	553.22907	1391.15909	-92.77307	465.26225	1342.21916	-433.43597	560.98068	1368.17514	-250.20175	558.27614	1361.51869	-290.97128	607.35163	1274.78891	-24.60000	599.94724	1050.03262	-15.62034	641.86028	1084.00292	34.09733	762.67493	1027.35309	-18.28287	863.31972	949.07311	-65.46000	858.27567	928.57354	-37.00163	462.82778	1222.84788	-484.13480	411.74484	997.21758	-409.10693	420.29627	1013.98256	-485.85009	481.30637	915.32868	-496.53473	505.86273	761.30002	-511.08435	475.89111	759.14862	-526.50489	526.31880	876.48673	-94.84547	535.66395	865.89511	-300.83195	539.17943	877.62026	-99.44134	531.83372	872.45416	-266.43012	
58	0.57000000	417.99724	489.87437	-65.09399	429.87038	409.30016	-83.62117	240.66514	120.05678	-94.71855	165.05880	99.86789	-129.41565	327.51619	43.12257	-61.36116	382.11414	63.25704	-118.37644	702.33359	501.21300	-366.04081	764.85640	430.07950	-375.31745	821.13178	115.95231	-378.29376	773.93009	53.49903	-334.55872	947.52672	95.67961	-407.98798	972.55484	139.79491	-354.89798	368.27587	311.65839	-62.03755	362.57526	447.88782	-51.30406	305.17818	351.04609	-52.12864	676.94851	410.26631	-380.12342	717.36283	295.09461	-395.70070	569.29365	778.99580	-29.92536	536.39613	671.99326	-41.80657	475.64593	665.08105	-16.49631	460.63605	807.86854	-8.99051	427.32524	695.48173	-28.72270	626.47856	757.28593	-402.26260	686.42876	634.25095	-383.22203	527.71997	712.04398	-362.92631	591.05761	586.82495	-356.44322	616.18013	954.46865	-69.28555	429.42712	991.86637	-162.09166	630.73731	936.87818	-322.07059	425.32799	989.29310	-262.38108	432.83978	1406.30702	-255.23687	565.64473	1391.50573	-96.82177	477.04005	1339.00140	-436.72032	572.76713	1366.54137	-253.99565	570.37774	1359.38595	-294.71038	619.94126	1275.77526	-27.50862	612.79095	1051.12415	-16.42927	654.79139	1085.64271	32.91039	775.45585	1028.64019	-19.60602	875.75155	950.01604	-66.77328	870.99408	929.74232	-38.18156	474.68169	1219.29258	-486.54477	424.24149	994.10946	-409.83700	432.30274	1010.42700	-486.78031	493.01279	911.64957	-497.44267	516.79460	757.46800	-511.38072	486.74388	755.40214	-526.62085	538.55008	874.68264	-95.59715	549.08187	864.77758	-301.56119	551.73750	875.44319	-99.78295	544.89944	871.15585	-267.10514	
59	0.58000000	428.81614	488.57250	-65.78581	439.34521	407.39452	-84.16029	243.19187	122.75939	-94.40029	167.22776	104.45001	-129.05393	328.16437	43.45469	-61.33455	383.29255	62.61243	-118.20297	715.65437	500.62542	-366.71226	775.75140	427.55450	-376.06316	825.37534	112.55572	-378.41712	776.64263	53.02390	-334.42177	950.71480	89.49049	-408.51197	977.23864	133.00427	-355.63645	375.55269	311.25970	-62.34989	373.08902	447.48711	-51.82545	313.24792	352.16595	-52.34250	687.31410	409.66637	-380.00337	725.12067	293.74355	-395.35725	581.02376	777.17191	-30.49732	547.80412	670.29667	-42.29026	486.93283	663.59069	-17.26689	472.31535	806.40705	-10.06906	438.77842	694.09901	-29.75443	640.95503	757.50708	-402.76575	700.77145	634.40776	-383.70521	541.81050	711.74891	-364.92993	605.07518	586.77690	-357.90146	628.63153	952.70846	-69.23457	442.24459	990.17887	-163.15678	644.17726	936.28984	-322.38387	438.42359	988.22084	-263.43875	444.94656	1404.98314	-259.39727	578.06612	1392.02750	-101.02411	488.97868	1335.77626	-440.14472	584.61198	1365.01827	-257.92863	582.57281	1357.38961	-298.58778	632.37029	1276.90217	-30.49738	625.35162	1052.35865	-17.37315	667.33768	1087.40426	31.65922	787.87576	1029.92123	-20.84904	887.85743	950.81625	-67.81285	883.28795	930.79890	-39.06591	486.78071	1215.72399	-489.06564	437.03006	990.99204	-410.70250	444.64153	1006.85400	-487.81780	505.15023	907.99043	-498.39163	528.28987	753.65106	-511.64681	498.18364	751.65623	-526.76394	551.11992	872.92923	-96.56291	562.63746	863.98425	-302.51599	564.56510	873.41119	-100.43019	558.17929	870.14319	-268.02073	
60	0.59000000	440.57449	487.15625	-66.61345	449.62183	405.37471	-84.77409	246.20719	125.91952	-94.09019	169.83744	109.72056	-128.74562	329.09735	44.02229	-61.39939	384.63679	61.90284	-118.03183	728.37263	499.97779	-367.33573	786.37447	425.08893	-376.69959	829.37104	109.30067	-378.16018	778.80045	53.25056	-333.89832	953.28635	83.05922	-408.55392	981.60662	125.73315	-355.85900	383.46862	310.95267	-62.74073	384.49448	447.07460	-52.45405	322.05194	353.44210	-52.66881	697.43979	409.10306	-379.67663	732.67093	292.46378	-394.66270	593.24115	775.47139	-31.29436	559.85665	668.66091	-43.00639	498.90290	662.03673	-18.22869	484.47509	804.87159	-11.26856	450.86970	692.59415	-30.90815	655.13582	757.66091	-403.44526	714.71825	634.46936	-384.26261	555.67567	711.68814	-366.71374	618.68865	586.81711	-359.13921	641.33850	951.07406	-69.47062	455.21802	988.63787	-164.13020	657.79264	936.07526	-322.87922	451.65744	987.35432	-264.41913	457.19803	1403.76189	-263.77351	590.49271	1392.72123	-105.38086	501.08257	1332.54170	-443.70052	596.56533	1363.64174	-262.00426	594.87718	1355.52094	-302.59296	644.67249	1278.17527	-33.58249	637.61530	1053.73548	-18.43988	679.50178	1089.28443	30.34876	799.93283	1031.19796	-22.00808	899.65618	951.49336	-68.56817	895.14547	931.74866	-39.64974	499.11985	1212.14607	-491.67805	450.09883	987.86007	-411.70212	457.32785	1003.26725	-488.95064	517.70985	904.35193	-499.37300	540.35506	749.86311	-511.89356	510.21157	747.90632	-526.91446	564.01956	871.28993	-97.71283	576.34410	863.51772	-303.66342	577.65360	871.58146	-101.38803	571.69612	869.43607	-269.16453	
